<svg width="73" height="27" fill="none" xmlns="http://www.w3.org/2000/svg" aria-label="Amazon">
    <g clip-path="url(#amazon_svg__a)">
        <g clip-path="url(#amazon_svg__b)" fill="#000">
            <path
                d="M41.59 21.63c-3.842 2.832-9.41 4.343-14.205 4.343-6.723 0-12.775-2.486-17.354-6.622-.36-.325-.038-.768.394-.515 4.941 2.875 11.051 4.605 17.363 4.605 4.256 0 8.938-.881 13.244-2.709.65-.276 1.194.426.558.898Z"
                fill-opacity="0.25"></path>
            <path
                d="M43.187 19.803c-.489-.628-3.246-.297-4.484-.15-.377.046-.434-.282-.095-.518 2.196-1.545 5.8-1.1 6.22-.581.42.52-.11 4.133-2.173 5.856-.317.265-.619.124-.478-.227.463-1.157 1.502-3.75 1.01-4.38Z"
                fill-opacity="0.25"></path>
            <path
                d="M38.79 8.225V6.723a.37.37 0 0 1 .38-.38h6.725c.216 0 .389.155.389.38v1.286c-.003.216-.184.498-.507.944l-3.485 4.976c1.295-.032 2.662.161 3.836.823.265.15.337.368.357.584v1.603c0 .219-.241.475-.495.343-2.069-1.085-4.817-1.203-7.105.011-.233.127-.478-.126-.478-.345v-1.523c0-.244.003-.662.248-1.033l4.037-5.79h-3.514c-.216 0-.388-.153-.388-.377Zm-24.535 9.373H12.21a.386.386 0 0 1-.365-.348V6.75c0-.21.175-.377.394-.377h1.908a.385.385 0 0 1 .371.35v1.373h.038c.498-1.326 1.433-1.945 2.694-1.945 1.28 0 2.08.619 2.656 1.945.495-1.326 1.62-1.945 2.826-1.945.857 0 1.796.354 2.368 1.148.648.884.516 2.167.516 3.293l-.003 6.627c0 .21-.176.38-.395.38h-2.043a.389.389 0 0 1-.368-.38v-5.566c0-.443.04-1.548-.058-1.968-.152-.705-.61-.904-1.203-.904-.495 0-1.013.331-1.223.86-.21.53-.19 1.417-.19 2.012v5.566c0 .21-.175.38-.394.38h-2.043a.387.387 0 0 1-.369-.38l-.003-5.566c0-1.17.193-2.895-1.26-2.895-1.47 0-1.413 1.681-1.413 2.896v5.565c0 .21-.176.38-.395.38ZM52.074 6.15c3.037 0 4.68 2.607 4.68 5.923 0 3.203-1.816 5.744-4.68 5.744-2.981 0-4.604-2.607-4.604-5.857 0-3.269 1.643-5.81 4.604-5.81Zm.018 2.144c-1.508 0-1.603 2.055-1.603 3.335 0 1.284-.02 4.024 1.585 4.024 1.586 0 1.66-2.21 1.66-3.557 0-.887-.037-1.946-.304-2.786-.23-.731-.688-1.016-1.338-1.016ZM6.603 12.582v-.443c-1.48 0-3.042.317-3.042 2.06 0 .884.458 1.483 1.243 1.483.576 0 1.091-.354 1.416-.93.403-.708.383-1.373.383-2.17Zm2.064 4.988a.427.427 0 0 1-.484.048c-.68-.564-.8-.825-1.174-1.364-1.123 1.146-1.917 1.488-3.373 1.488-1.721 0-3.062-1.062-3.062-3.189 0-1.66.9-2.791 2.181-3.344 1.111-.489 2.662-.575 3.848-.71v-.265c0-.487.038-1.062-.247-1.482-.25-.377-.729-.533-1.149-.533-.78 0-1.476.4-1.646 1.229-.034.184-.17.366-.354.374L1.221 9.61c-.167-.037-.35-.172-.305-.429.458-2.406 2.63-3.13 4.576-3.13.996 0 2.297.264 3.082 1.018.996.93.901 2.17.901 3.52v3.188c0 .959.397 1.379.771 1.897.133.184.162.406-.005.544a87.12 87.12 0 0 0-1.569 1.358l-.005-.005m52.023.027h-2.037a.389.389 0 0 1-.368-.38l-.003-10.504a.387.387 0 0 1 .394-.342h1.897c.178.008.325.13.365.293v1.606h.038c.572-1.436 1.375-2.121 2.788-2.121.918 0 1.813.33 2.389 1.237.535.84.535 2.254.535 3.27v6.61a.393.393 0 0 1-.394.331h-2.052a.388.388 0 0 1-.363-.33v-5.705c0-1.148.133-2.829-1.28-2.829-.498 0-.956.334-1.183.84-.288.642-.325 1.281-.325 1.99v5.654a.393.393 0 0 1-.4.38Zm-27.562-5.016v-.443c-1.479 0-3.042.317-3.042 2.06 0 .884.458 1.483 1.244 1.483.575 0 1.09-.354 1.416-.93.402-.708.382-1.373.382-2.17Zm2.064 4.988a.427.427 0 0 1-.484.048c-.679-.564-.8-.825-1.174-1.364-1.122 1.146-1.917 1.488-3.373 1.488-1.72 0-3.062-1.062-3.062-3.189 0-1.66.9-2.791 2.182-3.344 1.11-.489 2.662-.575 3.847-.71v-.265c0-.487.038-1.062-.247-1.482-.25-.377-.728-.533-1.148-.533-.78 0-1.477.4-1.647 1.229-.034.184-.17.366-.354.374l-1.985-.213c-.167-.037-.352-.172-.305-.429.457-2.406 2.63-3.13 4.575-3.13.996 0 2.297.264 3.083 1.018.995.93.9 2.17.9 3.52v3.188c0 .959.398 1.379.772 1.897.132.184.161.406-.006.544a87.06 87.06 0 0 0-1.568 1.358l-.006-.005"
                fill-opacity="0.5"></path>
        </g>
    </g>
    <defs>
        <clipPath id="amazon_svg__a">
            <path fill="#fff" transform="translate(.534 .001)" d="M0 0h72.097v26.059H0z"></path>
        </clipPath>
        <clipPath id="amazon_svg__b">
            <path fill="#fff" transform="translate(.534 6.022)" d="M0 0h66.194v19.979H0z"></path>
        </clipPath>
    </defs>
</svg>