<svg width="22" height="30" fill="none" xmlns="http://www.w3.org/2000/svg" aria-label="Apple">
    <g clip-path="url(#apple_svg__a)">
        <g clip-path="url(#apple_svg__b)">
            <path
                d="M20.236 8.809c-.149.115-2.777 1.596-2.777 4.888 0 3.809 3.344 5.156 3.444 5.19-.015.081-.531 1.845-1.763 3.64-1.098 1.582-2.245 3.16-3.99 3.16s-2.194-1.014-4.209-1.014c-1.963 0-2.661 1.047-4.257 1.047-1.597 0-2.71-1.462-3.99-3.259C1.21 20.351.01 17.075.01 13.964c0-4.988 3.244-7.634 6.437-7.634 1.696 0 3.11 1.113 4.175 1.113 1.014 0 2.594-1.18 4.524-1.18.732 0 3.36.067 5.089 2.546ZM14.231 4.15c.798-.947 1.363-2.26 1.363-3.575a2.46 2.46 0 0 0-.05-.516c-1.298.05-2.843.865-3.774 1.946-.731.831-1.414 2.145-1.414 3.477 0 .2.033.4.049.464.082.016.215.034.349.034 1.165 0 2.63-.78 3.477-1.83Z"
                fill="#000" fill-opacity="0.5"></path>
        </g>
    </g>
    <defs>
        <clipPath id="apple_svg__a">
            <path fill="#fff" transform="translate(.011 .06)" d="M0 0h21.386v29.94H0z"></path>
        </clipPath>
        <clipPath id="apple_svg__b">
            <path fill="#fff" transform="translate(.011 .06)" d="M0 0h20.889v25.663H0z"></path>
        </clipPath>
    </defs>
</svg>