<svg width="63" height="27" fill="none" xmlns="http://www.w3.org/2000/svg" aria-label="Disney">
    <g clip-path="url(#disney_svg__a)">
        <path
            d="M25.597 6.006s.229-.356.432-.635c.356-.483 1.016-1.169 1.499-1.6l.33-.28s-.28.025-.432.05c-.381.077-.914.432-1.194.661-.457.381-.94 1.016-.736 1.575.05.127.101.229.101.229Zm2.515.686a4.732 4.732 0 0 0 2.007-.61c.61-.33 1.498-1.016 1.422-1.804a.648.648 0 0 0-.406-.533c-.28-.127-.407-.102-.762 0-.254.076-.356.127-.61.254-.711.406-1.702 1.27-2.235 1.981-.127.153-.254.356-.356.483-.076.076-.102.152-.102.178.026.076.762.076 1.042.05Zm-1.804 1.32c-.076.077-.152.255-.228.407-.051.076-.127.178-.178.203-.178.127-.33.153-.534-.025a1.217 1.217 0 0 1-.406-.89c0-.152.025-.304 0-.431-.05-.203-.254-.432-.356-.61-.127-.228-.228-.635-.254-.914-.05-.813.381-1.575.94-2.185.56-.61 1.321-1.118 2.109-1.448.762-.33 1.88-.533 2.718-.254.28.102.66.33.838.559.05.05.076.102.127.127.026.025.127.025.203.05.28.052.66.255.813.382.305.28.483.533.559.914.153.762-.28 1.6-.787 2.109-.864.863-1.702 1.498-2.795 1.905-.482.178-1.22.356-1.778.305-.178-.026-.356-.051-.508-.076-.076 0-.381-.077-.432-.102l-.05-.025Zm.966 1.702c.025 0 .076.026.127.026.38.152.533.508.635.889.228.915.305 2.896.355 3.683l.077 1.753c.025.483.05 1.143-.051 1.6a.708.708 0 0 1-.305.458c-.178.127-.584.127-.813.076-.559-.127-.737-.483-.813-1.042-.178-1.32-.101-3.912.026-5.004.025-.356.177-1.524.355-2.007.026-.152.178-.482.407-.432ZM10 11.696s-.838.05-1.397.127c-.737.076-2.083.305-2.87.584-.23.076-.712.28-.763.534-.05.254.102.457.28.66.101.127.66.66.838.788.66.559 2.032 1.422 3.023 1.829.33.152.914.355.914.355s-.05-1.626-.025-3.2c-.026-.839 0-1.677 0-1.677Zm15.216.635c.05.432-.076 1.245-.076 1.372-.026.254-.229.813-.254.889-.153.355-.305.635-.457.914-.28.483-.915 1.27-1.296 1.6-1.422 1.245-3.633 1.931-5.538 2.16a14.236 14.236 0 0 1-4.14-.127c-.458-.076-1.169-.254-1.169-.254s0 .28-.025.482c0 .077-.077.33-.127.407-.102.203-.254.305-.508.356-.28.05-.585.076-.864-.051-.432-.178-.584-.585-.66-1.067-.051-.381-.128-1.016-.128-1.016s-.33-.153-.584-.28a14.782 14.782 0 0 1-2.312-1.422 49.464 49.464 0 0 1-1.193-.99c-.508-.484-.966-.966-1.321-1.576-.28-.482-.356-.914-.153-1.422.28-.712 1.296-1.245 2.007-1.55.508-.229 2.108-.737 2.769-.838.305-.051.787-.127.838-.153l.026-.025c.025-.026.05-.737.025-.99 0-.255.178-1.906.254-2.262.025-.203.178-.914.33-1.117.102-.127.254-.127.407-.026.762.483.99 2.109 1.041 2.947.026.508.051 1.27.051 1.27s.864-.025 1.397 0c.508.025 1.093.102 1.626.178.686.102 2.032.406 2.82.787.635.33 1.219.864 1.422 1.448.178.534.153.89-.127 1.372-.305.534-.889.94-1.473.965-.178 0-.838-.076-1.042-.228a.196.196 0 0 1-.025-.254c.025-.026.33-.178.508-.28a.553.553 0 0 0 .229-.178c.152-.127.279-.279.279-.457-.025-.228-.254-.355-.483-.457-1.066-.406-3.15-.762-4.191-.838-.406-.026-.965-.051-.965-.051l.178 5.665s.457.101.838.152c.203.026 1.117.102 1.346.127 1.83.05 3.836-.102 5.513-.914.736-.356 1.397-.763 1.905-1.347.66-.762 1.016-1.829.94-2.921-.102-1.194-.94-2.617-1.626-3.48-1.778-2.286-4.827-4.166-7.52-5.284-2.743-1.118-5.461-1.778-8.357-1.88-.762-.025-2.388 0-3.2.229-.128.025-.23.076-.356.101-.076.026-.229.077-.254.102l-.051.05.102.052c.076.05.457.05.635.101.177.026.355.127.406.254.076.127.076.204 0 .305-.178.229-.89.178-1.194.153-.33-.051-.711-.153-.787-.432-.077-.33.076-.66.228-.966.33-.61.839-.914 1.55-1.117C3.446.239 4.716.036 5.68.01c2.185-.077 4.217.304 6.326.94 1.194.355 2.794.965 3.937 1.524a31.19 31.19 0 0 1 2.87 1.625 81.535 81.535 0 0 1 1.804 1.321c.432.356 1.016.864 1.423 1.296.813.787 1.803 2.007 2.286 2.972.127.229.203.457.356.737.05.101.279.635.304.813.026.152.102.38.102.406.025.026.127.508.127.686Zm9.348.406h.076c.66.102 1.321.204 1.804.432.457.204.737.457.99.915.382.711.407 1.676.052 2.413-.255.559-.813 1.016-1.321 1.27-.534.254-1.042.381-1.652.457-1.041.127-2.184-.101-3.124-.558-.559-.28-1.245-.737-1.575-1.347a1.358 1.358 0 0 1 .05-1.448c.483-.66 1.525-.813 2.338-.787.61.025 1.676.203 2.26.406.153.051.737.28.839.381.076.076.127.178.076.28-.127.406-1.092.61-1.372.66-.762.127-1.143-.178-1.981-.508-.203-.076-.483-.178-.711-.203-.381-.025-.864.076-.915.482-.025.23.229.432.407.509.457.203.838.279 1.27.279 1.32.025 2.82-.203 3.912-.965.152-.102.305-.254.305-.457 0-.026-.026-.23-.102-.255h-.025c-.026 0-.077-.076-.102-.127-.076-.101-.381-.228-.457-.254-.737-.304-2.083-.457-2.794-.508-.737-.05-1.88-.152-2.16-.203-.28-.05-.584-.102-.838-.203a.997.997 0 0 1-.559-.635c-.127-.508.026-1.118.305-1.499.737-1.041 2.439-1.448 3.709-1.6 1.219-.153 3.226-.153 4.42.482.178.102.28.204.254.381-.076.381-.356.61-.712.712-.355.101-1.092.152-1.422.177-1.448.077-3.226.051-4.598.407-.101.025-.305.076-.356.152-.228.229.407.305.534.33.05 0 .05 0 .076.026l3.1.406Zm4.547 5.462c-.584-.229-.71-1.169-.736-1.651-.102-1.575.33-3.734.838-5.208.152-.406.356-1.092.838-1.067.33.026.56.28.737.534.457.66 1.067 1.524 1.473 2.134.457.685.89 1.371 1.296 2.006.05.077.101.153.152.204.076.05.153.076.178 0 .025-.026-.025-.813-.025-.966-.026-.254-.051-.457-.077-.686-.076-.635-.279-1.524-.431-2.133-.178-.66-.382-1.372-.534-2.033a2.758 2.758 0 0 1-.102-.635c0-.279.178-.457.483-.355.61.203 1.397 1.499 1.626 1.956.076.152.381.914.457 1.143.254.737.407 1.448.457 2.26.077.788 0 1.931-.33 2.719-.127.28-.38.66-.584.864-.33.304-.99.533-1.423.279-.482-.28-1.295-1.677-1.448-1.93-.457-.814-1.27-2.414-1.397-2.592-.025-.05-.05-.076-.127-.101-.05-.026-.076.076-.076.152-.076.457-.127 2.642-.127 2.718-.025.356-.025 1.27-.127 1.702-.076.28-.127.534-.406.66-.204.153-.356.102-.585.026Zm8.13-.152a.977.977 0 0 1-.23-.229s-.228-.33-.254-.432c-.025-.076-.076-.152-.101-.203-.203-.508-.178-.99-.076-1.524.101-.508.203-.508.457-1.194.025-.026.025-.076.025-.102 0-.101-.152-.736-.152-.914 0-.305.229-.534.635-.56h.102c.152-.05.254-.355.355-.583.127-.356.305-.864.305-.864s-.508-.127-.787-.229c-.305-.127-.534-.254-.66-.533-.153-.33-.052-.508.279-.61.127-.05 1.117-.228 1.422-.28.381-.05.762-.1 1.118-.152.33-.05 1.803-.203 2.26-.203.712.025 1.17.305 1.601.915.229.33.381.71.05.914-.533.305-2.21.33-2.514.356h-1.169l-.355 1.143s1.22-.026 1.88-.026c.177 0 .33 0 .431.026.356.076.458.355.483.736.026.458-.076.661-.432.712-.178.025-2.26.05-2.54.076l-.356.05s-.152.382-.279.788c-.127.407-.254.839-.254.839h.203c.153 0 .305-.026.407-.051.635-.127 1.575-.254 2.362-.381.407-.076.635-.102.838.178.178.254.28.457.305.736 0 .28-.203.457-.457.66-.813.636-2.21 1.296-3.252 1.423-.482.051-.61 0-1.016-.101-.076-.026-.38-.153-.38-.178-.052-.051-.204-.153-.255-.203Zm13.132-5.767c-.533.457-1.219 1.372-1.55 1.83-.431.634-.863 1.346-1.244 1.904-.076.127-.33.585-.33.585.025.025.28.025.533-.026.56-.101 1.321-.482 1.753-.813a3.686 3.686 0 0 0 1.27-1.981c.102-.356.127-1.143-.127-1.473-.076-.051-.203-.102-.305-.026Zm-4.267 6.58s-.178.508-.305.889c-.203.685-.686 2.489-.788 3.048-.152.838-.635 3.023-.66 3.074-.025.076-.05.076-.127.127-.203.101-.28.076-.508-.051a2.079 2.079 0 0 1-.788-.635c-.457-.585-.355-1.702-.254-2.363.305-2.286.635-3.302 1.5-5.588.024-.051.024-.051 0-.076a4.45 4.45 0 0 1-.407-1.855c0-1.803 1.041-3.556 2.184-4.979.076-.101.66-.787.915-.762.254 0 .305.305.254.559-.127.838-.711 1.677-1.118 2.362-.457.788-.533 1.093-.762 1.804a8.47 8.47 0 0 0-.127.711c0 .204.05.432.05.432s.738-1.016 1.22-1.651c.254-.356.457-.584.66-.813.23-.254 1.068-1.143 1.322-1.372.508-.482.736-.686 1.295-.99.432-.229.838-.28 1.27 0 .686.457.991 1.397 1.067 2.159a5.062 5.062 0 0 1-.508 2.743c-.483.94-1.143 1.626-2.032 2.21-.915.61-1.982 1.017-3.048.991-.127.026-.305.026-.305.026Z"
            fill="#000" fill-opacity="0.5"></path>
    </g>
    <defs>
        <clipPath id="disney_svg__a">
            <path fill="#fff" transform="translate(.631 .001)" d="M0 0h61.674v26.059H0z"></path>
        </clipPath>
    </defs>
</svg>