<svg width="91" height="26" fill="none" xmlns="http://www.w3.org/2000/svg" aria-label="Shopify">
    <g clip-path="url(#shopify_svg__a)">
        <g clip-path="url(#shopify_svg__b)">
            <path
                d="M19.51 5.06a.245.245 0 0 0-.221-.207c-.092-.007-1.889-.035-1.889-.035s-1.503-1.458-1.65-1.607c-.149-.149-.439-.104-.551-.07l-.755.233a5.287 5.287 0 0 0-.361-.888c-.536-1.02-1.32-1.56-2.266-1.562h-.003c-.066 0-.131.006-.197.012a2.881 2.881 0 0 0-.086-.099C11.118.397 10.59.181 9.955.2c-1.222.035-2.44.918-3.428 2.487-.694 1.103-1.223 2.49-1.373 3.564l-2.407.745c-.71.223-.732.245-.824.913C1.854 8.414 0 22.753 0 22.753l15.54 2.688 6.736-1.675L19.51 5.06Zm-5.845-1.445-1.206.374c-.01-.62-.083-1.48-.371-2.225.928.176 1.384 1.225 1.577 1.851Zm-2.02.626-2.594.803c.251-.96.727-1.916 1.31-2.543.218-.233.522-.493.881-.641.339.706.412 1.705.404 2.38ZM9.98 1.014c.287-.007.529.056.735.192a3.54 3.54 0 0 0-.95.74c-.776.833-1.371 2.127-1.609 3.375l-2.13.66c.42-1.965 2.067-4.913 3.954-4.967Z"
                fill="#000" fill-opacity="0.25"></path>
            <path
                d="M19.29 4.854c-.092-.008-1.89-.035-1.89-.035s-1.502-1.46-1.65-1.608a.367.367 0 0 0-.21-.096l.002 22.325 6.734-1.674S19.528 5.188 19.511 5.06a.246.246 0 0 0-.221-.206Z"
                fill="#000" fill-opacity="0.5"></path>
            <path
                d="m11.808 8.317-.783 2.927s-.872-.397-1.906-.332c-1.517.096-1.533 1.052-1.518 1.292.083 1.31 3.526 1.595 3.72 4.661.151 2.412-1.28 4.062-3.343 4.192-2.475.156-3.838-1.304-3.838-1.304l.525-2.231s1.372 1.035 2.47.966c.717-.046.973-.63.947-1.042-.108-1.707-2.912-1.606-3.089-4.412-.15-2.36 1.401-4.753 4.822-4.968 1.318-.085 1.993.251 1.993.251Z"
                fill="#fff"></path>
            <path
                d="M31.145 14.445c-.774-.42-1.172-.774-1.172-1.261 0-.62.553-1.018 1.416-1.018 1.005 0 1.902.42 1.902.42L34 10.419s-.65-.51-2.566-.51c-2.666 0-4.514 1.528-4.514 3.674 0 1.217.863 2.146 2.014 2.81.93.53 1.261.907 1.261 1.46 0 .575-.464 1.04-1.327 1.04-1.286 0-2.5-.665-2.5-.665l-.752 2.169s1.122.752 3.009.752c2.744 0 4.713-1.35 4.713-3.783-.001-1.305-.996-2.234-2.192-2.92Zm10.93-4.558c-1.35 0-2.411.642-3.23 1.615l-.044-.022 1.172-6.128H36.92l-2.965 15.597h3.054l1.017-5.331c.398-2.014 1.438-3.252 2.412-3.252.686 0 .952.464.952 1.128a7 7 0 0 1-.133 1.35l-1.15 6.106h3.053l1.195-6.305c.133-.664.221-1.46.221-1.992-.001-1.726-.908-2.766-2.5-2.766Zm9.403 0c-3.673 0-6.106 3.32-6.106 7.014 0 2.367 1.46 4.27 4.203 4.27 3.607 0 6.04-3.23 6.04-7.014 0-2.19-1.283-4.27-4.137-4.27Zm-1.505 8.939c-1.04 0-1.482-.885-1.482-1.991 0-1.748.907-4.602 2.567-4.602 1.084 0 1.437.93 1.437 1.836 0 1.88-.906 4.757-2.522 4.757Zm13.452-8.939c-2.06 0-3.23 1.815-3.23 1.815h-.044l.177-1.637H57.63a65.259 65.259 0 0 1-.62 4.048l-2.123 11.173h3.053l.84-4.514h.067s.627.398 1.792.398c3.584 0 5.93-3.672 5.93-7.39 0-2.056-.908-3.893-3.143-3.893Zm-2.92 8.983c-.793 0-1.262-.443-1.262-.443l.51-2.854c.353-1.902 1.349-3.164 2.411-3.164.93 0 1.217.863 1.217 1.682 0 1.97-1.173 4.779-2.876 4.779ZM70.926 5.507c-.974 0-1.748.774-1.748 1.77 0 .907.575 1.526 1.438 1.526h.044c.952 0 1.77-.642 1.792-1.77 0-.885-.597-1.526-1.526-1.526Zm-4.27 15.443h3.052l2.08-10.819h-3.075L66.656 20.95Zm12.899-10.841H77.43l.11-.51c.178-1.039.797-1.968 1.815-1.968.543 0 .973.155.973.155l.597-2.39s-.53-.265-1.66-.265c-1.083 0-2.167.31-2.986 1.017-1.04.885-1.526 2.168-1.77 3.452l-.088.509h-1.416l-.442 2.301h1.416l-1.615 8.54h3.053l1.615-8.54h2.102l.42-2.301Zm7.345.022s-1.91 4.809-2.766 7.434h-.045c-.058-.846-.752-7.434-.752-7.434h-3.208l1.837 9.933c.044.221.022.355-.067.51-.354.685-.951 1.35-1.66 1.836-.574.42-1.216.686-1.725.863l.841 2.588c.62-.132 1.902-.641 2.986-1.659 1.395-1.305 2.677-3.319 4.005-6.062l3.739-8.01h-3.186v.001Z"
                fill="#000" fill-opacity="0.5"></path>
        </g>
    </g>
    <defs>
        <clipPath id="shopify_svg__a">
            <path fill="#fff" transform="translate(0 .199)" d="M0 0h90.674v25.663H0z"></path>
        </clipPath>
        <clipPath id="shopify_svg__b">
            <path fill="#fff" transform="translate(0 .199)" d="M0 0h90.45v25.663H0z"></path>
        </clipPath>
    </defs>
</svg>